# xmcd
#
# Track frame offsets: 
#        150
#        19286
#        41677
#        69745
#        87377
#        111973
#        130106
#        146229
#        167379
#        188772
#        207454
#
# Disc length: 2943 seconds
#
# Revision: 1
# Processed by: cddbd v1.5.2PL0 Copyright (c) Steve Scherf et al.
# Submitted via: ExactAudioCopy v1.0b4
#
DISCID=a10b7d0b
DTITLE=Juarez Moreira - Samblues
DYEAR=1997
DGENRE=Brasil Jazz
TTITLE0=Marcha da Quarta-feira de Cinzas
TTITLE1=Beguine
TTITLE2=Último Adeus
TTITLE3=Focus
TTITLE4=Samblues
TTITLE5=Praia
TTITLE6=Choro para Piazzolla
TTITLE7=Você Chegou Sorrindo
TTITLE8=No Desafio do Mar
TTITLE9=There Will Never Be another You
TTITLE10=Um Rosto de Mulher
EXTD=
EXTT0=
EXTT1=
EXTT2=
EXTT3=
EXTT4=
EXTT5=
EXTT6=
EXTT7=
EXTT8=
EXTT9=
EXTT10=
PLAYORDER=
